<svg width="1442" height="871" viewBox="0 0 1442 871" fill="none" xmlns="http://www.w3.org/2000/svg">
<path d="M72.9843 1V67.8461M72.9843 1H1V67.8461M72.9843 1H144.969M72.9843 67.8461L72.9843 134.692M72.9843 67.8461H1M72.9843 67.8461L144.969 67.8462M72.9843 134.692V201.538M72.9843 134.692H1M72.9843 134.692L144.969 134.692M72.9843 201.538L72.9843 268.385M72.9843 201.538H1M72.9843 201.538H144.968M72.9843 268.385V335.231M72.9843 268.385H1M72.9843 268.385H144.968M72.9843 335.231V402.077M72.9843 335.231H1M72.9843 335.231H144.968M72.9843 402.077L72.9842 468.923M72.9843 402.077H1M72.9843 402.077H144.968M72.9842 468.923V535.769M72.9842 468.923H1M72.9842 468.923H144.968M72.9842 535.769V602.615M72.9842 535.769H1M72.9842 535.769H144.968M72.9842 602.615L72.9842 669.461M72.9842 602.615H1M72.9842 602.615H144.968M72.9842 669.461V736.308M72.9842 669.461H1M72.9842 669.461H144.968M72.9842 736.308L72.9842 803.154M72.9842 736.308H1M72.9842 736.308H144.968M72.9842 803.154V870M72.9842 803.154H1M72.9842 803.154H144.968M72.9842 870L1 870V803.154M72.9842 870H144.968M1 67.8461V134.692M1 134.692V201.538M1 201.538V268.385M1 268.385V335.231M1 335.231V402.077M1 402.077V468.923M1 468.923V535.769M1 535.769V602.615M1 602.615V669.461M1 669.461V736.308M1 736.308V803.154M144.969 1V67.8462M144.969 1H216.953M144.969 67.8462V134.692M144.969 67.8462H216.953M144.969 134.692L144.968 201.538M144.969 134.692H216.953M144.968 201.538V268.385M144.968 201.538L216.953 201.538M144.968 268.385V335.231M144.968 268.385H216.953M144.968 335.231V402.077M144.968 335.231H216.953M144.968 402.077L144.968 468.923M144.968 402.077H216.953M144.968 468.923V535.769M144.968 468.923H216.953M144.968 535.769V602.615M144.968 535.769H216.953M144.968 602.615V669.461M144.968 602.615H216.953M144.968 669.461L144.968 736.308M144.968 669.461H216.953M144.968 736.308V803.154M144.968 736.308H216.953M144.968 803.154V870M144.968 803.154H216.953M144.968 870H216.953M216.953 1V67.8462M216.953 1H288.937M216.953 67.8462V134.692M216.953 67.8462L288.937 67.8462M216.953 134.692L216.953 201.538M216.953 134.692H288.937M216.953 201.538V268.385M216.953 201.538H288.937M216.953 268.385V335.231M216.953 268.385L288.937 268.385M216.953 335.231V402.077M216.953 335.231L288.937 335.231M216.953 402.077L216.953 468.923M216.953 402.077H288.937M216.953 468.923V535.769M216.953 468.923H288.937M216.953 535.769V602.615M216.953 535.769H288.937M216.953 602.615V669.461M216.953 602.615H288.937M216.953 669.461L216.953 736.308M216.953 669.461H288.937M216.953 736.308V803.154M216.953 736.308H288.937M216.953 803.154V870M216.953 803.154H288.937M216.953 870H288.937M288.937 1V67.8462M288.937 1H360.921M288.937 67.8462V134.692M288.937 67.8462H360.921M288.937 134.692V201.538M288.937 134.692L360.921 134.692M288.937 201.538V268.385M288.937 201.538H360.921M288.937 268.385V335.231M288.937 268.385H360.921M288.937 335.231V402.077M288.937 335.231H360.921M288.937 402.077L288.937 468.923M288.937 402.077H360.921M288.937 468.923V535.769M288.937 468.923H360.921M288.937 535.769V602.615M288.937 535.769H360.921M288.937 602.615V669.461M288.937 602.615H360.921M288.937 669.461V736.308M288.937 669.461H360.921M288.937 736.308V803.154M288.937 736.308H360.921M288.937 803.154V870M288.937 803.154H360.921M288.937 870H360.921M504.89 1V67.8462M504.89 1H432.905M504.89 1H576.874M504.89 67.8462V134.692M504.89 67.8462H432.905M504.89 67.8462L576.874 67.8462M504.89 134.692V201.538M504.89 134.692H432.905M504.89 134.692H576.874M504.89 201.538V268.385M504.89 201.538L432.905 201.538M504.89 201.538H576.874M504.89 268.385V335.231M504.89 268.385H432.905M504.89 268.385H576.874M504.89 335.231V402.077M504.89 335.231H432.905M504.89 335.231H576.874M504.89 402.077L504.89 468.923M504.89 402.077L432.905 402.077M504.89 402.077H576.874M504.89 468.923V535.769M504.89 468.923L432.905 468.923M504.89 468.923H576.874M504.89 535.769V602.615M504.89 535.769L432.905 535.769M504.89 535.769H576.874M504.89 602.615V669.462M504.89 602.615H432.905M504.89 602.615H576.874M504.89 669.462V736.308M504.89 669.462L432.905 669.461M504.89 669.462H576.874M504.89 736.308V803.154M504.89 736.308L432.905 736.308M504.89 736.308H576.874M504.89 803.154V870M504.89 803.154L432.905 803.154M504.89 803.154H576.874M504.89 870H432.905M504.89 870H576.874M720.842 1V67.8462M720.842 1H648.858M720.842 1H792.827M720.842 67.8462V134.692M720.842 67.8462L648.858 67.8462M720.842 67.8462H792.827M720.842 134.692V201.538M720.842 134.692H648.858M720.842 134.692H792.827M720.842 201.538V268.385M720.842 201.538H648.858M720.842 201.538L792.827 201.538M720.842 268.385V335.231M720.842 268.385L648.858 268.385M720.842 268.385H792.827M720.842 335.231V402.077M720.842 335.231L648.858 335.231M720.842 335.231H792.827M720.842 402.077L720.842 468.923M720.842 402.077H648.858M720.842 402.077H792.827M720.842 468.923V535.769M720.842 468.923H648.858M720.842 468.923H792.827M720.842 535.769V602.615M720.842 535.769H648.858M720.842 535.769H792.827M720.842 602.615V669.462M720.842 602.615H648.858M720.842 602.615H792.827M720.842 669.462V736.308M720.842 669.462H648.858M720.842 669.462H792.827M720.842 736.308V803.154M720.842 736.308H648.858M720.842 736.308H792.827M720.842 803.154V870M720.842 803.154H648.858M720.842 803.154H792.827M720.842 870H648.858M720.842 870H792.827M360.921 1V67.8462M360.921 1H432.905M360.921 67.8462V134.692M360.921 67.8462L432.905 67.8462M360.921 134.692V201.538M360.921 134.692H432.905M360.921 201.538V268.385M360.921 201.538H432.905M360.921 268.385V335.231M360.921 268.385H432.905M360.921 335.231V402.077M360.921 335.231H432.905M360.921 402.077L360.921 468.923M360.921 402.077H432.905M360.921 468.923V535.769M360.921 468.923H432.905M360.921 535.769V602.615M360.921 535.769H432.905M360.921 602.615V669.461M360.921 602.615H432.905M360.921 669.461V736.308M360.921 669.461H432.905M360.921 736.308V803.154M360.921 736.308H432.905M360.921 803.154V870M360.921 803.154H432.905M360.921 870H432.905M576.874 1V67.8462M576.874 1H648.858M576.874 67.8462V134.692M576.874 67.8462H648.858M576.874 134.692V201.538M576.874 134.692L648.858 134.692M576.874 201.538V268.385M576.874 201.538H648.858M576.874 268.385V335.231M576.874 268.385H648.858M576.874 335.231V402.077M576.874 335.231H648.858M576.874 402.077L576.874 468.923M576.874 402.077H648.858M576.874 468.923V535.769M576.874 468.923H648.858M576.874 535.769V602.615M576.874 535.769H648.858M576.874 602.615V669.462M576.874 602.615H648.858M576.874 669.462V736.308M576.874 669.462H648.858M576.874 736.308V803.154M576.874 736.308H648.858M576.874 803.154V870M576.874 803.154H648.858M576.874 870H648.858M792.827 1V67.8462M792.827 1H864.811M792.827 67.8462V134.692M792.827 67.8462L864.811 67.8462M792.827 134.692V201.538M792.827 134.692L864.811 134.692M792.827 201.538V268.385M792.827 201.538H864.811M792.827 268.385V335.231M792.827 268.385H864.811M792.827 335.231V402.077M792.827 335.231H864.811M792.827 402.077V468.923M792.827 402.077H864.811M792.827 468.923V535.769M792.827 468.923H864.811M792.827 535.769V602.615M792.827 535.769H864.811M792.827 602.615V669.462M792.827 602.615H864.811M792.827 669.462V736.308M792.827 669.462H864.811M792.827 736.308V803.154M792.827 736.308H864.811M792.827 803.154V870M792.827 803.154H864.811M792.827 870H864.811M432.905 1V67.8462M432.905 67.8462V134.692M432.905 134.692V201.538M432.905 201.538L432.905 268.385M432.905 268.385V335.231M432.905 335.231V402.077M432.905 402.077V468.923M432.905 468.923V535.769M432.905 535.769V602.615M432.905 602.615L432.905 669.461M432.905 669.461V736.308M432.905 736.308V803.154M432.905 803.154V870M648.858 1V67.8462M648.858 67.8462V134.692M648.858 134.692V201.538M648.858 201.538V268.385M648.858 268.385V335.231M648.858 335.231V402.077M648.858 402.077V468.923M648.858 468.923V535.769M648.858 535.769V602.615M648.858 602.615V669.462M648.858 669.462V736.308M648.858 736.308V803.154M648.858 803.154V870M864.811 1V67.8462M864.811 1H936.795V870H864.811M864.811 67.8462V134.692M864.811 67.8462H936.794M864.811 134.692V201.538M864.811 134.692H936.794M864.811 201.538V268.385M864.811 201.538H936.794M864.811 268.385V335.231M864.811 268.385H936.794M864.811 335.231V402.077M864.811 335.231H936.794M864.811 402.077V468.923M864.811 402.077H936.794M864.811 468.923V535.769M864.811 468.923H936.794M864.811 535.769V602.615M864.811 535.769H936.794M864.811 602.615V669.462M864.811 602.615H936.794M864.811 669.462V736.308M864.811 669.462H936.794M864.811 736.308V803.154M864.811 736.308H936.794M864.811 803.154V870M864.811 803.154H936.794M577.189 1V67.8461M577.189 1H505.205V67.8461M577.189 1H649.173M577.189 67.8461V134.692M577.189 67.8461H505.205M577.189 67.8461L649.173 67.8462M577.189 134.692V201.538M577.189 134.692H505.205M577.189 134.692L649.173 134.692M577.189 201.538V268.385M577.189 201.538H505.205M577.189 201.538H649.173M577.189 268.385V335.231M577.189 268.385H505.205M577.189 268.385H649.173M577.189 335.231V402.077M577.189 335.231H505.205M577.189 335.231H649.173M577.189 402.077V468.923M577.189 402.077H505.205M577.189 402.077H649.173M577.189 468.923V535.769M577.189 468.923H505.205M577.189 468.923H649.173M577.189 535.769V602.615M577.189 535.769H505.205M577.189 535.769H649.173M577.189 602.615V669.461M577.189 602.615H505.205M577.189 602.615H649.173M577.189 669.461V736.308M577.189 669.461H505.205M577.189 669.461H649.173M577.189 736.308L577.189 803.154M577.189 736.308H505.205M577.189 736.308H649.173M577.189 803.154V870M577.189 803.154H505.205M577.189 803.154H649.173M577.189 870L505.205 870V803.154M577.189 870H649.173M505.205 67.8461V134.692M505.205 134.692V201.538M505.205 201.538V268.385M505.205 268.385V335.231M505.205 335.231V402.077M505.205 402.077V468.923M505.205 468.923V535.769M505.205 535.769V602.615M505.205 602.615V669.461M505.205 669.461V736.308M505.205 736.308V803.154M649.173 1V67.8462M649.173 1H721.158M649.173 67.8462V134.692M649.173 67.8462H721.158M649.173 134.692V201.538M649.173 134.692H721.158M649.173 201.538V268.385M649.173 201.538L721.158 201.538M649.173 268.385V335.231M649.173 268.385H721.158M649.173 335.231V402.077M649.173 335.231H721.158M649.173 402.077V468.923M649.173 402.077H721.158M649.173 468.923V535.769M649.173 468.923H721.158M649.173 535.769V602.615M649.173 535.769H721.158M649.173 602.615V669.461M649.173 602.615H721.158M649.173 669.461V736.308M649.173 669.461H721.158M649.173 736.308V803.154M649.173 736.308H721.158M649.173 803.154V870M649.173 803.154H721.158M649.173 870H721.158M721.158 1V67.8462M721.158 1H793.142M721.158 67.8462V134.692M721.158 67.8462L793.142 67.8462M721.158 134.692L721.158 201.538M721.158 134.692H793.142M721.158 201.538V268.385M721.158 201.538H793.142M721.158 268.385V335.231M721.158 268.385L793.142 268.385M721.158 335.231V402.077M721.158 335.231L793.142 335.231M721.158 402.077V468.923M721.158 402.077H793.142M721.158 468.923V535.769M721.158 468.923H793.142M721.158 535.769V602.615M721.158 535.769H793.142M721.158 602.615V669.461M721.158 602.615H793.142M721.158 669.461V736.308M721.158 669.461H793.142M721.158 736.308V803.154M721.158 736.308H793.142M721.158 803.154V870M721.158 803.154H793.142M721.158 870H793.142M793.142 1V67.8462M793.142 1H865.126M793.142 67.8462V134.692M793.142 67.8462H865.126M793.142 134.692V201.538M793.142 134.692L865.126 134.692M793.142 201.538V268.385M793.142 201.538H865.126M793.142 268.385V335.231M793.142 268.385H865.126M793.142 335.231V402.077M793.142 335.231H865.126M793.142 402.077L793.142 468.923M793.142 402.077H865.126M793.142 468.923V535.769M793.142 468.923H865.126M793.142 535.769V602.615M793.142 535.769H865.126M793.142 602.615V669.461M793.142 602.615H865.126M793.142 669.461V736.308M793.142 669.461H865.126M793.142 736.308V803.154M793.142 736.308H865.126M793.142 803.154V870M793.142 803.154H865.126M793.142 870H865.126M1009.09 1V67.8462M1009.09 1H937.11M1009.09 1H1081.08M1009.09 67.8462V134.692M1009.09 67.8462H937.11M1009.09 67.8462L1081.08 67.8462M1009.09 134.692V201.538M1009.09 134.692H937.11M1009.09 134.692H1081.08M1009.09 201.538V268.385M1009.09 201.538L937.11 201.538M1009.09 201.538H1081.08M1009.09 268.385V335.231M1009.09 268.385H937.11M1009.09 268.385H1081.08M1009.09 335.231V402.077M1009.09 335.231H937.11M1009.09 335.231H1081.08M1009.09 402.077V468.923M1009.09 402.077L937.11 402.077M1009.09 402.077H1081.08M1009.09 468.923V535.769M1009.09 468.923L937.11 468.923M1009.09 468.923H1081.08M1009.09 535.769V602.615M1009.09 535.769L937.11 535.769M1009.09 535.769H1081.08M1009.09 602.615V669.462M1009.09 602.615H937.11M1009.09 602.615H1081.08M1009.09 669.462V736.308M1009.09 669.462L937.11 669.461M1009.09 669.462H1081.08M1009.09 736.308V803.154M1009.09 736.308L937.11 736.308M1009.09 736.308H1081.08M1009.09 803.154V870M1009.09 803.154L937.11 803.154M1009.09 803.154H1081.08M1009.09 870H937.11M1009.09 870H1081.08M1225.05 1V67.8462M1225.05 1H1153.06M1225.05 1H1297.03M1225.05 67.8462V134.692M1225.05 67.8462L1153.06 67.8462M1225.05 67.8462H1297.03M1225.05 134.692V201.538M1225.05 134.692H1153.06M1225.05 134.692H1297.03M1225.05 201.538V268.385M1225.05 201.538H1153.06M1225.05 201.538L1297.03 201.538M1225.05 268.385V335.231M1225.05 268.385L1153.06 268.385M1225.05 268.385H1297.03M1225.05 335.231V402.077M1225.05 335.231L1153.06 335.231M1225.05 335.231H1297.03M1225.05 402.077L1225.05 468.923M1225.05 402.077H1153.06M1225.05 402.077H1297.03M1225.05 468.923V535.769M1225.05 468.923H1153.06M1225.05 468.923H1297.03M1225.05 535.769V602.615M1225.05 535.769H1153.06M1225.05 535.769H1297.03M1225.05 602.615V669.462M1225.05 602.615H1153.06M1225.05 602.615H1297.03M1225.05 669.462V736.308M1225.05 669.462H1153.06M1225.05 669.462H1297.03M1225.05 736.308V803.154M1225.05 736.308H1153.06M1225.05 736.308H1297.03M1225.05 803.154V870M1225.05 803.154H1153.06M1225.05 803.154H1297.03M1225.05 870H1153.06M1225.05 870H1297.03M865.126 1V67.8462M865.126 1H937.11M865.126 67.8462V134.692M865.126 67.8462L937.11 67.8462M865.126 134.692V201.538M865.126 134.692H937.11M865.126 201.538V268.385M865.126 201.538H937.11M865.126 268.385V335.231M865.126 268.385H937.11M865.126 335.231V402.077M865.126 335.231H937.11M865.126 402.077V468.923M865.126 402.077H937.11M865.126 468.923V535.769M865.126 468.923H937.11M865.126 535.769V602.615M865.126 535.769H937.11M865.126 602.615V669.461M865.126 602.615H937.11M865.126 669.461V736.308M865.126 669.461H937.11M865.126 736.308V803.154M865.126 736.308H937.11M865.126 803.154V870M865.126 803.154H937.11M865.126 870H937.11M1081.08 1V67.8462M1081.08 1H1153.06M1081.08 67.8462V134.692M1081.08 67.8462H1153.06M1081.08 134.692V201.538M1081.08 134.692L1153.06 134.692M1081.08 201.538V268.385M1081.08 201.538H1153.06M1081.08 268.385V335.231M1081.08 268.385H1153.06M1081.08 335.231V402.077M1081.08 335.231H1153.06M1081.08 402.077V468.923M1081.08 402.077H1153.06M1081.08 468.923V535.769M1081.08 468.923H1153.06M1081.08 535.769V602.615M1081.08 535.769H1153.06M1081.08 602.615V669.462M1081.08 602.615H1153.06M1081.08 669.462V736.308M1081.08 669.462H1153.06M1081.08 736.308V803.154M1081.08 736.308H1153.06M1081.08 803.154V870M1081.08 803.154H1153.06M1081.08 870H1153.06M1297.03 1V67.8462M1297.03 1H1369.02M1297.03 67.8462V134.692M1297.03 67.8462L1369.02 67.8462M1297.03 134.692V201.538M1297.03 134.692L1369.02 134.692M1297.03 201.538V268.385M1297.03 201.538H1369.02M1297.03 268.385V335.231M1297.03 268.385H1369.02M1297.03 335.231V402.077M1297.03 335.231H1369.02M1297.03 402.077V468.923M1297.03 402.077H1369.02M1297.03 468.923V535.769M1297.03 468.923H1369.02M1297.03 535.769V602.615M1297.03 535.769H1369.02M1297.03 602.615V669.462M1297.03 602.615H1369.02M1297.03 669.462V736.308M1297.03 669.462H1369.02M1297.03 736.308V803.154M1297.03 736.308H1369.02M1297.03 803.154V870M1297.03 803.154H1369.02M1297.03 870H1369.02M937.11 1V67.8462M937.11 67.8462V134.692M937.11 134.692V201.538M937.11 201.538V268.385M937.11 268.385V335.231M937.11 335.231V402.077M937.11 402.077V468.923M937.11 468.923V535.769M937.11 535.769V602.615M937.11 602.615L937.11 669.461M937.11 669.461V736.308M937.11 736.308V803.154M937.11 803.154V870M1153.06 1V67.8462M1153.06 67.8462V134.692M1153.06 134.692V201.538M1153.06 201.538V268.385M1153.06 268.385V335.231M1153.06 335.231V402.077M1153.06 402.077V468.923M1153.06 468.923V535.769M1153.06 535.769V602.615M1153.06 602.615V669.462M1153.06 669.462V736.308M1153.06 736.308V803.154M1153.06 803.154V870M1369.02 1V67.8462M1369.02 1H1441V870H1369.02M1369.02 67.8462V134.692M1369.02 67.8462H1441M1369.02 134.692V201.538M1369.02 134.692H1441M1369.02 201.538V268.385M1369.02 201.538H1441M1369.02 268.385V335.231M1369.02 268.385H1441M1369.02 335.231V402.077M1369.02 335.231H1441M1369.02 402.077V468.923M1369.02 402.077H1441M1369.02 468.923V535.769M1369.02 468.923H1441M1369.02 535.769V602.615M1369.02 535.769H1441M1369.02 602.615V669.462M1369.02 602.615H1441M1369.02 669.462V736.308M1369.02 669.462H1441M1369.02 736.308V803.154M1369.02 736.308H1441M1369.02 803.154V870M1369.02 803.154H1441" stroke="url('#paint0_linear_7_871')"></path>
<defs>
<linearGradient id="paint0_linear_7_871" x1="1" y1="1" x2="1368.07" y2="931.296" gradientUnits="userSpaceOnUse">
<stop stop-color="white" stop-opacity="0.1"></stop>
<stop offset="1" stop-color="white" stop-opacity="0"></stop>
</linearGradient>
</defs>
</svg>
